<?xml version="1.0" encoding="utf-8"?>
<!-- Generator: Adobe Illustrator 23.0.0, SVG Export Plug-In . SVG Version: 6.00 Build 0)  -->
<svg version="1.1" id="Layer_1" xmlns="http://www.w3.org/2000/svg" xmlns:xlink="http://www.w3.org/1999/xlink" x="0px" y="0px"
	 viewBox="0 0 200 200" style="enable-background:new 0 0 200 200;" xml:space="preserve">
<style type="text/css">
	.st0{fill:#F0F0F0;}
</style>
<rect class="st0" width="200" height="200"/>
<rect x="99.7" y="99.4" shape-rendering="optimizeSpeed" width="3.8" height="3.8"/>
<rect x="103.4" y="99.4" shape-rendering="optimizeSpeed" width="3.8" height="3.8"/>
<rect x="107.3" y="99.4" shape-rendering="optimizeSpeed" width="3.8" height="3.8"/>
<rect x="111" y="99.4" shape-rendering="optimizeSpeed" width="3.8" height="3.8"/>
<rect x="114.8" y="99.4" shape-rendering="optimizeSpeed" width="3.8" height="3.8"/>
<rect x="118.6" y="99.4" shape-rendering="optimizeSpeed" width="3.8" height="3.8"/>
<rect x="122.4" y="99.4" shape-rendering="optimizeSpeed" width="3.8" height="3.8"/>
<rect x="129.9" y="99.4" shape-rendering="optimizeSpeed" width="3.8" height="3.8"/>
<rect x="141.2" y="99.4" shape-rendering="optimizeSpeed" width="3.8" height="3.8"/>
<rect x="145" y="99.4" shape-rendering="optimizeSpeed" width="3.8" height="3.8"/>
<rect x="152.6" y="99.4" shape-rendering="optimizeSpeed" width="3.8" height="3.8"/>
<rect x="167.7" y="99.4" shape-rendering="optimizeSpeed" width="3.8" height="3.8"/>
<rect x="171.5" y="99.4" shape-rendering="optimizeSpeed" width="3.8" height="3.8"/>
<rect x="175.3" y="99.4" shape-rendering="optimizeSpeed" width="3.8" height="3.8"/>
<rect x="179.1" y="99.4" shape-rendering="optimizeSpeed" width="3.8" height="3.8"/>
<rect x="182.8" y="99.4" shape-rendering="optimizeSpeed" width="3.8" height="3.8"/>
<rect x="186.6" y="99.4" shape-rendering="optimizeSpeed" width="3.8" height="3.8"/>
<rect x="190.4" y="99.4" shape-rendering="optimizeSpeed" width="3.8" height="3.8"/>
<rect x="99.7" y="103.1" shape-rendering="optimizeSpeed" width="3.8" height="3.8"/>
<rect x="122.4" y="103.1" shape-rendering="optimizeSpeed" width="3.8" height="3.8"/>
<rect x="129.9" y="103.1" shape-rendering="optimizeSpeed" width="3.8" height="3.8"/>
<rect x="133.7" y="103.1" shape-rendering="optimizeSpeed" width="3.8" height="3.8"/>
<rect x="137.5" y="103.1" shape-rendering="optimizeSpeed" width="3.8" height="3.8"/>
<rect x="145" y="103.1" shape-rendering="optimizeSpeed" width="3.8" height="3.8"/>
<rect x="148.9" y="103.1" shape-rendering="optimizeSpeed" width="3.8" height="3.8"/>
<rect x="152.6" y="103.1" shape-rendering="optimizeSpeed" width="3.8" height="3.8"/>
<rect x="167.7" y="103.1" shape-rendering="optimizeSpeed" width="3.8" height="3.8"/>
<rect x="190.4" y="103.1" shape-rendering="optimizeSpeed" width="3.8" height="3.8"/>
<rect x="99.7" y="107" shape-rendering="optimizeSpeed" width="3.8" height="3.8"/>
<rect x="107.3" y="107" shape-rendering="optimizeSpeed" width="3.8" height="3.8"/>
<rect x="111" y="107" shape-rendering="optimizeSpeed" width="3.8" height="3.8"/>
<rect x="114.8" y="107" shape-rendering="optimizeSpeed" width="3.8" height="3.8"/>
<rect x="122.4" y="107" shape-rendering="optimizeSpeed" width="3.8" height="3.8"/>
<rect x="137.5" y="107" shape-rendering="optimizeSpeed" width="3.8" height="3.8"/>
<rect x="141.2" y="107" shape-rendering="optimizeSpeed" width="3.8" height="3.8"/>
<rect x="145" y="107" shape-rendering="optimizeSpeed" width="3.8" height="3.8"/>
<rect x="148.9" y="107" shape-rendering="optimizeSpeed" width="3.8" height="3.8"/>
<rect x="160.2" y="107" shape-rendering="optimizeSpeed" width="3.8" height="3.8"/>
<rect x="167.7" y="107" shape-rendering="optimizeSpeed" width="3.8" height="3.8"/>
<rect x="175.3" y="107" shape-rendering="optimizeSpeed" width="3.8" height="3.8"/>
<rect x="179.1" y="107" shape-rendering="optimizeSpeed" width="3.8" height="3.8"/>
<rect x="182.8" y="107" shape-rendering="optimizeSpeed" width="3.8" height="3.8"/>
<rect x="190.4" y="107" shape-rendering="optimizeSpeed" width="3.8" height="3.8"/>
<rect x="99.7" y="110.7" shape-rendering="optimizeSpeed" width="3.8" height="3.8"/>
<rect x="107.3" y="110.7" shape-rendering="optimizeSpeed" width="3.8" height="3.8"/>
<rect x="111" y="110.7" shape-rendering="optimizeSpeed" width="3.8" height="3.8"/>
<rect x="114.8" y="110.7" shape-rendering="optimizeSpeed" width="3.8" height="3.8"/>
<rect x="122.4" y="110.7" shape-rendering="optimizeSpeed" width="3.8" height="3.8"/>
<rect x="137.5" y="110.7" shape-rendering="optimizeSpeed" width="3.8" height="3.8"/>
<rect x="148.9" y="110.7" shape-rendering="optimizeSpeed" width="3.8" height="3.8"/>
<rect x="156.4" y="110.7" shape-rendering="optimizeSpeed" width="3.8" height="3.8"/>
<rect x="167.7" y="110.7" shape-rendering="optimizeSpeed" width="3.8" height="3.8"/>
<rect x="175.3" y="110.7" shape-rendering="optimizeSpeed" width="3.8" height="3.8"/>
<rect x="179.1" y="110.7" shape-rendering="optimizeSpeed" width="3.8" height="3.8"/>
<rect x="182.8" y="110.7" shape-rendering="optimizeSpeed" width="3.8" height="3.8"/>
<rect x="190.4" y="110.7" shape-rendering="optimizeSpeed" width="3.8" height="3.8"/>
<rect x="99.7" y="114.5" shape-rendering="optimizeSpeed" width="3.8" height="3.8"/>
<rect x="107.3" y="114.5" shape-rendering="optimizeSpeed" width="3.8" height="3.8"/>
<rect x="111" y="114.5" shape-rendering="optimizeSpeed" width="3.8" height="3.8"/>
<rect x="114.8" y="114.5" shape-rendering="optimizeSpeed" width="3.8" height="3.8"/>
<rect x="122.4" y="114.5" shape-rendering="optimizeSpeed" width="3.8" height="3.8"/>
<rect x="129.9" y="114.5" shape-rendering="optimizeSpeed" width="3.8" height="3.8"/>
<rect x="133.7" y="114.5" shape-rendering="optimizeSpeed" width="3.8" height="3.8"/>
<rect x="137.5" y="114.5" shape-rendering="optimizeSpeed" width="3.8" height="3.8"/>
<rect x="141.2" y="114.5" shape-rendering="optimizeSpeed" width="3.8" height="3.8"/>
<rect x="152.6" y="114.5" shape-rendering="optimizeSpeed" width="3.8" height="3.8"/>
<rect x="167.7" y="114.5" shape-rendering="optimizeSpeed" width="3.8" height="3.8"/>
<rect x="175.3" y="114.5" shape-rendering="optimizeSpeed" width="3.8" height="3.8"/>
<rect x="179.1" y="114.5" shape-rendering="optimizeSpeed" width="3.8" height="3.8"/>
<rect x="182.8" y="114.5" shape-rendering="optimizeSpeed" width="3.8" height="3.8"/>
<rect x="190.4" y="114.5" shape-rendering="optimizeSpeed" width="3.8" height="3.8"/>
<rect x="99.7" y="118.3" shape-rendering="optimizeSpeed" width="3.8" height="3.8"/>
<rect x="122.4" y="118.3" shape-rendering="optimizeSpeed" width="3.8" height="3.8"/>
<rect x="129.9" y="118.3" shape-rendering="optimizeSpeed" width="3.8" height="3.8"/>
<rect x="141.2" y="118.3" shape-rendering="optimizeSpeed" width="3.8" height="3.8"/>
<rect x="148.9" y="118.3" shape-rendering="optimizeSpeed" width="3.8" height="3.8"/>
<rect x="152.6" y="118.3" shape-rendering="optimizeSpeed" width="3.8" height="3.8"/>
<rect x="160.2" y="118.3" shape-rendering="optimizeSpeed" width="3.8" height="3.8"/>
<rect x="167.7" y="118.3" shape-rendering="optimizeSpeed" width="3.8" height="3.8"/>
<rect x="190.4" y="118.3" shape-rendering="optimizeSpeed" width="3.8" height="3.8"/>
<rect x="99.7" y="122.1" shape-rendering="optimizeSpeed" width="3.8" height="3.8"/>
<rect x="103.4" y="122.1" shape-rendering="optimizeSpeed" width="3.8" height="3.8"/>
<rect x="107.3" y="122.1" shape-rendering="optimizeSpeed" width="3.8" height="3.8"/>
<rect x="111" y="122.1" shape-rendering="optimizeSpeed" width="3.8" height="3.8"/>
<rect x="114.8" y="122.1" shape-rendering="optimizeSpeed" width="3.8" height="3.8"/>
<rect x="118.6" y="122.1" shape-rendering="optimizeSpeed" width="3.8" height="3.8"/>
<rect x="122.4" y="122.1" shape-rendering="optimizeSpeed" width="3.8" height="3.8"/>
<rect x="129.9" y="122.1" shape-rendering="optimizeSpeed" width="3.8" height="3.8"/>
<rect x="137.5" y="122.1" shape-rendering="optimizeSpeed" width="3.8" height="3.8"/>
<rect x="145" y="122.1" shape-rendering="optimizeSpeed" width="3.8" height="3.8"/>
<rect x="152.6" y="122.1" shape-rendering="optimizeSpeed" width="3.8" height="3.8"/>
<rect x="160.2" y="122.1" shape-rendering="optimizeSpeed" width="3.8" height="3.8"/>
<rect x="167.7" y="122.1" shape-rendering="optimizeSpeed" width="3.8" height="3.8"/>
<rect x="171.5" y="122.1" shape-rendering="optimizeSpeed" width="3.8" height="3.8"/>
<rect x="175.3" y="122.1" shape-rendering="optimizeSpeed" width="3.8" height="3.8"/>
<rect x="179.1" y="122.1" shape-rendering="optimizeSpeed" width="3.8" height="3.8"/>
<rect x="182.8" y="122.1" shape-rendering="optimizeSpeed" width="3.8" height="3.8"/>
<rect x="186.6" y="122.1" shape-rendering="optimizeSpeed" width="3.8" height="3.8"/>
<rect x="190.4" y="122.1" shape-rendering="optimizeSpeed" width="3.8" height="3.8"/>
<rect x="129.9" y="125.8" shape-rendering="optimizeSpeed" width="3.8" height="3.8"/>
<rect x="137.5" y="125.8" shape-rendering="optimizeSpeed" width="3.8" height="3.8"/>
<rect x="141.2" y="126.5" shape-rendering="optimizeSpeed" width="3.8" height="3.8"/>
<rect x="145" y="125.8" shape-rendering="optimizeSpeed" width="3.8" height="3.8"/>
<rect x="156.4" y="125.8" shape-rendering="optimizeSpeed" width="3.8" height="3.8"/>
<rect x="160.2" y="125.8" shape-rendering="optimizeSpeed" width="3.8" height="3.8"/>
<rect x="99.7" y="129.6" shape-rendering="optimizeSpeed" width="3.8" height="3.8"/>
<rect x="103.4" y="129.6" shape-rendering="optimizeSpeed" width="3.8" height="3.8"/>
<rect x="107.3" y="129.6" shape-rendering="optimizeSpeed" width="3.8" height="3.8"/>
<rect x="118.6" y="129.6" shape-rendering="optimizeSpeed" width="3.8" height="3.8"/>
<rect x="122.4" y="129.6" shape-rendering="optimizeSpeed" width="3.8" height="3.8"/>
<rect x="129.9" y="129.6" shape-rendering="optimizeSpeed" width="3.8" height="3.8"/>
<rect x="133.7" y="129.6" shape-rendering="optimizeSpeed" width="3.8" height="3.8"/>
<rect x="137.5" y="129.6" shape-rendering="optimizeSpeed" width="3.8" height="3.8"/>
<rect x="160.2" y="129.6" shape-rendering="optimizeSpeed" width="3.8" height="3.8"/>
<rect x="164" y="129.6" shape-rendering="optimizeSpeed" width="3.8" height="3.8"/>
<rect x="167.7" y="129.6" shape-rendering="optimizeSpeed" width="3.8" height="3.8"/>
<rect x="171.5" y="129.6" shape-rendering="optimizeSpeed" width="3.8" height="3.8"/>
<rect x="175.3" y="129.6" shape-rendering="optimizeSpeed" width="3.8" height="3.8"/>
<rect x="186.6" y="129.6" shape-rendering="optimizeSpeed" width="3.8" height="3.8"/>
<rect x="190.4" y="129.6" shape-rendering="optimizeSpeed" width="3.8" height="3.8"/>
<rect x="99.7" y="133.4" shape-rendering="optimizeSpeed" width="3.8" height="3.8"/>
<rect x="103.4" y="133.4" shape-rendering="optimizeSpeed" width="3.8" height="3.8"/>
<rect x="107.3" y="133.4" shape-rendering="optimizeSpeed" width="3.8" height="3.8"/>
<rect x="114.8" y="133.4" shape-rendering="optimizeSpeed" width="3.8" height="3.8"/>
<rect x="133.7" y="133.4" shape-rendering="optimizeSpeed" width="3.8" height="3.8"/>
<rect x="137.5" y="133.4" shape-rendering="optimizeSpeed" width="3.8" height="3.8"/>
<rect x="148.9" y="133.4" shape-rendering="optimizeSpeed" width="3.8" height="3.8"/>
<rect x="156.4" y="133.4" shape-rendering="optimizeSpeed" width="3.8" height="3.8"/>
<rect x="160.2" y="133.4" shape-rendering="optimizeSpeed" width="3.8" height="3.8"/>
<rect x="164" y="133.4" shape-rendering="optimizeSpeed" width="3.8" height="3.8"/>
<rect x="167.7" y="133.4" shape-rendering="optimizeSpeed" width="3.8" height="3.8"/>
<rect x="171.5" y="133.4" shape-rendering="optimizeSpeed" width="3.8" height="3.8"/>
<rect x="179.1" y="133.4" shape-rendering="optimizeSpeed" width="3.8" height="3.8"/>
<rect x="186.6" y="133.4" shape-rendering="optimizeSpeed" width="3.8" height="3.8"/>
<rect x="190.4" y="133.4" shape-rendering="optimizeSpeed" width="3.8" height="3.8"/>
<rect x="111" y="137.2" shape-rendering="optimizeSpeed" width="3.8" height="3.8"/>
<rect x="118.6" y="137.2" shape-rendering="optimizeSpeed" width="3.8" height="3.8"/>
<rect x="122.4" y="137.2" shape-rendering="optimizeSpeed" width="3.8" height="3.8"/>
<rect x="126.1" y="137.2" shape-rendering="optimizeSpeed" width="3.8" height="3.8"/>
<rect x="129.9" y="137.2" shape-rendering="optimizeSpeed" width="3.8" height="3.8"/>
<rect x="141.2" y="137.9" shape-rendering="optimizeSpeed" width="3.8" height="3.8"/>
<rect x="148.9" y="137.2" shape-rendering="optimizeSpeed" width="3.8" height="3.8"/>
<rect x="156.4" y="137.2" shape-rendering="optimizeSpeed" width="3.8" height="3.8"/>
<rect x="160.2" y="137.2" shape-rendering="optimizeSpeed" width="3.8" height="3.8"/>
<rect x="164" y="137.2" shape-rendering="optimizeSpeed" width="3.8" height="3.8"/>
<rect x="167.7" y="137.2" shape-rendering="optimizeSpeed" width="3.8" height="3.8"/>
<rect x="175.3" y="137.2" shape-rendering="optimizeSpeed" width="3.8" height="3.8"/>
<rect x="179.1" y="137.2" shape-rendering="optimizeSpeed" width="3.8" height="3.8"/>
<rect x="182.8" y="137.2" shape-rendering="optimizeSpeed" width="3.8" height="3.8"/>
<rect x="190.4" y="137.2" shape-rendering="optimizeSpeed" width="3.8" height="3.8"/>
<rect x="103.4" y="140.9" shape-rendering="optimizeSpeed" width="3.8" height="3.8"/>
<rect x="114.8" y="140.9" shape-rendering="optimizeSpeed" width="3.8" height="3.8"/>
<rect x="129.9" y="140.9" shape-rendering="optimizeSpeed" width="3.8" height="3.8"/>
<rect x="133.7" y="140.9" shape-rendering="optimizeSpeed" width="3.8" height="3.8"/>
<rect x="152.6" y="140.9" shape-rendering="optimizeSpeed" width="3.8" height="3.8"/>
<rect x="156.4" y="140.9" shape-rendering="optimizeSpeed" width="3.8" height="3.8"/>
<rect x="167.7" y="140.9" shape-rendering="optimizeSpeed" width="3.8" height="3.8"/>
<rect x="179.1" y="140.9" shape-rendering="optimizeSpeed" width="3.8" height="3.8"/>
<rect x="99.7" y="144.7" shape-rendering="optimizeSpeed" width="3.8" height="3.8"/>
<rect x="103.4" y="144.7" shape-rendering="optimizeSpeed" width="3.8" height="3.8"/>
<rect x="107.3" y="144.7" shape-rendering="optimizeSpeed" width="3.8" height="3.8"/>
<rect x="111" y="144.7" shape-rendering="optimizeSpeed" width="3.8" height="3.8"/>
<rect x="122.4" y="144.7" shape-rendering="optimizeSpeed" width="3.8" height="3.8"/>
<rect x="126.1" y="144.7" shape-rendering="optimizeSpeed" width="3.8" height="3.8"/>
<rect x="129.9" y="144.7" shape-rendering="optimizeSpeed" width="3.8" height="3.8"/>
<rect x="133.7" y="144.7" shape-rendering="optimizeSpeed" width="3.8" height="3.8"/>
<rect x="141.2" y="144.7" shape-rendering="optimizeSpeed" width="3.8" height="3.8"/>
<rect x="145" y="144.7" shape-rendering="optimizeSpeed" width="3.8" height="3.8"/>
<rect x="160.2" y="144.7" shape-rendering="optimizeSpeed" width="3.8" height="3.8"/>
<rect x="164" y="144.7" shape-rendering="optimizeSpeed" width="3.8" height="3.8"/>
<rect x="167.7" y="144.7" shape-rendering="optimizeSpeed" width="3.8" height="3.8"/>
<rect x="171.5" y="144.7" shape-rendering="optimizeSpeed" width="3.8" height="3.8"/>
<rect x="190.4" y="144.7" shape-rendering="optimizeSpeed" width="3.8" height="3.8"/>
<rect x="103.4" y="148.5" shape-rendering="optimizeSpeed" width="3.8" height="3.8"/>
<rect x="107.3" y="148.5" shape-rendering="optimizeSpeed" width="3.8" height="3.8"/>
<rect x="111" y="148.5" shape-rendering="optimizeSpeed" width="3.8" height="3.8"/>
<rect x="118.6" y="148.5" shape-rendering="optimizeSpeed" width="3.8" height="3.8"/>
<rect x="126.1" y="148.5" shape-rendering="optimizeSpeed" width="3.8" height="3.8"/>
<rect x="145" y="148.5" shape-rendering="optimizeSpeed" width="3.8" height="3.8"/>
<rect x="156.4" y="148.5" shape-rendering="optimizeSpeed" width="3.8" height="3.8"/>
<rect x="160.2" y="148.5" shape-rendering="optimizeSpeed" width="3.8" height="3.8"/>
<rect x="167.7" y="148.5" shape-rendering="optimizeSpeed" width="3.8" height="3.8"/>
<rect x="171.5" y="148.5" shape-rendering="optimizeSpeed" width="3.8" height="3.8"/>
<rect x="186.6" y="148.5" shape-rendering="optimizeSpeed" width="3.8" height="3.8"/>
<rect x="190.4" y="148.5" shape-rendering="optimizeSpeed" width="3.8" height="3.8"/>
<rect x="99.7" y="152.3" shape-rendering="optimizeSpeed" width="3.8" height="3.8"/>
<rect x="103.4" y="152.3" shape-rendering="optimizeSpeed" width="3.8" height="3.8"/>
<rect x="107.3" y="152.3" shape-rendering="optimizeSpeed" width="3.8" height="3.8"/>
<rect x="114.8" y="152.3" shape-rendering="optimizeSpeed" width="3.8" height="3.8"/>
<rect x="122.4" y="152.3" shape-rendering="optimizeSpeed" width="3.8" height="3.8"/>
<rect x="126.1" y="152.3" shape-rendering="optimizeSpeed" width="3.8" height="3.8"/>
<rect x="129.9" y="152.3" shape-rendering="optimizeSpeed" width="3.8" height="3.8"/>
<rect x="133.7" y="152.3" shape-rendering="optimizeSpeed" width="3.8" height="3.8"/>
<rect x="137.5" y="152.3" shape-rendering="optimizeSpeed" width="3.8" height="3.8"/>
<rect x="145" y="152.3" shape-rendering="optimizeSpeed" width="3.8" height="3.8"/>
<rect x="148.9" y="152.3" shape-rendering="optimizeSpeed" width="3.8" height="3.8"/>
<rect x="156.4" y="152.3" shape-rendering="optimizeSpeed" width="3.8" height="3.8"/>
<rect x="179.1" y="152.3" shape-rendering="optimizeSpeed" width="3.8" height="3.8"/>
<rect x="182.8" y="152.3" shape-rendering="optimizeSpeed" width="3.8" height="3.8"/>
<rect x="190.4" y="152.3" shape-rendering="optimizeSpeed" width="3.8" height="3.8"/>
<rect x="111" y="156" shape-rendering="optimizeSpeed" width="3.8" height="3.8"/>
<rect x="114.8" y="156" shape-rendering="optimizeSpeed" width="3.8" height="3.8"/>
<rect x="118.6" y="156" shape-rendering="optimizeSpeed" width="3.8" height="3.8"/>
<rect x="126.1" y="156" shape-rendering="optimizeSpeed" width="3.8" height="3.8"/>
<rect x="141.2" y="156" shape-rendering="optimizeSpeed" width="3.8" height="3.8"/>
<rect x="145" y="156" shape-rendering="optimizeSpeed" width="3.8" height="3.8"/>
<rect x="152.6" y="156" shape-rendering="optimizeSpeed" width="3.8" height="3.8"/>
<rect x="156.4" y="156" shape-rendering="optimizeSpeed" width="3.8" height="3.8"/>
<rect x="160.2" y="156" shape-rendering="optimizeSpeed" width="3.8" height="3.8"/>
<rect x="167.7" y="156" shape-rendering="optimizeSpeed" width="3.8" height="3.8"/>
<rect x="171.5" y="156" shape-rendering="optimizeSpeed" width="3.8" height="3.8"/>
<rect x="175.3" y="156" shape-rendering="optimizeSpeed" width="3.8" height="3.8"/>
<rect x="179.1" y="156" shape-rendering="optimizeSpeed" width="3.8" height="3.8"/>
<rect x="99.7" y="159.9" shape-rendering="optimizeSpeed" width="3.8" height="3.8"/>
<rect x="103.4" y="159.9" shape-rendering="optimizeSpeed" width="3.8" height="3.8"/>
<rect x="107.3" y="159.9" shape-rendering="optimizeSpeed" width="3.8" height="3.8"/>
<rect x="111" y="159.9" shape-rendering="optimizeSpeed" width="3.8" height="3.8"/>
<rect x="114.8" y="159.9" shape-rendering="optimizeSpeed" width="3.8" height="3.8"/>
<rect x="118.6" y="159.9" shape-rendering="optimizeSpeed" width="3.8" height="3.8"/>
<rect x="122.4" y="159.9" shape-rendering="optimizeSpeed" width="3.8" height="3.8"/>
<rect x="126.1" y="159.9" shape-rendering="optimizeSpeed" width="3.8" height="3.8"/>
<rect x="129.9" y="159.9" shape-rendering="optimizeSpeed" width="3.8" height="3.8"/>
<rect x="133.7" y="159.9" shape-rendering="optimizeSpeed" width="3.8" height="3.8"/>
<rect x="137.5" y="159.9" shape-rendering="optimizeSpeed" width="3.8" height="3.8"/>
<rect x="148.9" y="159.9" shape-rendering="optimizeSpeed" width="3.8" height="3.8"/>
<rect x="152.6" y="159.9" shape-rendering="optimizeSpeed" width="3.8" height="3.8"/>
<rect x="160.2" y="159.9" shape-rendering="optimizeSpeed" width="3.8" height="3.8"/>
<rect x="164" y="159.9" shape-rendering="optimizeSpeed" width="3.8" height="3.8"/>
<rect x="167.7" y="159.9" shape-rendering="optimizeSpeed" width="3.8" height="3.8"/>
<rect x="171.5" y="159.9" shape-rendering="optimizeSpeed" width="3.8" height="3.8"/>
<rect x="175.3" y="159.9" shape-rendering="optimizeSpeed" width="3.8" height="3.8"/>
<rect x="186.6" y="159.9" shape-rendering="optimizeSpeed" width="3.8" height="3.8"/>
<rect x="129.9" y="163.6" shape-rendering="optimizeSpeed" width="3.8" height="3.8"/>
<rect x="137.5" y="163.6" shape-rendering="optimizeSpeed" width="3.8" height="3.8"/>
<rect x="148.9" y="163.6" shape-rendering="optimizeSpeed" width="3.8" height="3.8"/>
<rect x="160.2" y="163.6" shape-rendering="optimizeSpeed" width="3.8" height="3.8"/>
<rect x="175.3" y="163.6" shape-rendering="optimizeSpeed" width="3.8" height="3.8"/>
<rect x="190.4" y="163.6" shape-rendering="optimizeSpeed" width="3.8" height="3.8"/>
<rect x="99.7" y="167.4" shape-rendering="optimizeSpeed" width="3.8" height="3.8"/>
<rect x="103.4" y="167.4" shape-rendering="optimizeSpeed" width="3.8" height="3.8"/>
<rect x="107.3" y="167.4" shape-rendering="optimizeSpeed" width="3.8" height="3.8"/>
<rect x="111" y="167.4" shape-rendering="optimizeSpeed" width="3.8" height="3.8"/>
<rect x="114.8" y="167.4" shape-rendering="optimizeSpeed" width="3.8" height="3.8"/>
<rect x="118.6" y="167.4" shape-rendering="optimizeSpeed" width="3.8" height="3.8"/>
<rect x="122.4" y="167.4" shape-rendering="optimizeSpeed" width="3.8" height="3.8"/>
<rect x="137.5" y="167.4" shape-rendering="optimizeSpeed" width="3.8" height="3.8"/>
<rect x="141.2" y="167.4" shape-rendering="optimizeSpeed" width="3.8" height="3.8"/>
<rect x="160.2" y="167.4" shape-rendering="optimizeSpeed" width="3.8" height="3.8"/>
<rect x="167.7" y="167.4" shape-rendering="optimizeSpeed" width="3.8" height="3.8"/>
<rect x="175.3" y="167.4" shape-rendering="optimizeSpeed" width="3.8" height="3.8"/>
<rect x="190.4" y="167.4" shape-rendering="optimizeSpeed" width="3.8" height="3.8"/>
<rect x="99.7" y="171.2" shape-rendering="optimizeSpeed" width="3.8" height="3.8"/>
<rect x="122.4" y="171.2" shape-rendering="optimizeSpeed" width="3.8" height="3.8"/>
<rect x="129.9" y="171.2" shape-rendering="optimizeSpeed" width="3.8" height="3.8"/>
<rect x="133.7" y="171.2" shape-rendering="optimizeSpeed" width="3.8" height="3.8"/>
<rect x="137.5" y="171.2" shape-rendering="optimizeSpeed" width="3.8" height="3.8"/>
<rect x="148.9" y="171.2" shape-rendering="optimizeSpeed" width="3.8" height="3.8"/>
<rect x="156.4" y="171.2" shape-rendering="optimizeSpeed" width="3.8" height="3.8"/>
<rect x="160.2" y="171.2" shape-rendering="optimizeSpeed" width="3.8" height="3.8"/>
<rect x="175.3" y="171.2" shape-rendering="optimizeSpeed" width="3.8" height="3.8"/>
<rect x="186.6" y="171.2" shape-rendering="optimizeSpeed" width="3.8" height="3.8"/>
<rect x="99.7" y="175" shape-rendering="optimizeSpeed" width="3.8" height="3.8"/>
<rect x="107.3" y="175" shape-rendering="optimizeSpeed" width="3.8" height="3.8"/>
<rect x="111" y="175" shape-rendering="optimizeSpeed" width="3.8" height="3.8"/>
<rect x="114.8" y="175" shape-rendering="optimizeSpeed" width="3.8" height="3.8"/>
<rect x="122.4" y="175" shape-rendering="optimizeSpeed" width="3.8" height="3.8"/>
<rect x="137.5" y="175" shape-rendering="optimizeSpeed" width="3.8" height="3.8"/>
<rect x="141.2" y="175" shape-rendering="optimizeSpeed" width="3.8" height="3.8"/>
<rect x="145" y="175" shape-rendering="optimizeSpeed" width="3.8" height="3.8"/>
<rect x="148.9" y="175" shape-rendering="optimizeSpeed" width="3.8" height="3.8"/>
<rect x="156.4" y="175" shape-rendering="optimizeSpeed" width="3.8" height="3.8"/>
<rect x="160.2" y="175" shape-rendering="optimizeSpeed" width="3.8" height="3.8"/>
<rect x="164" y="175" shape-rendering="optimizeSpeed" width="3.8" height="3.8"/>
<rect x="167.7" y="175" shape-rendering="optimizeSpeed" width="3.8" height="3.8"/>
<rect x="171.5" y="175" shape-rendering="optimizeSpeed" width="3.8" height="3.8"/>
<rect x="175.3" y="175" shape-rendering="optimizeSpeed" width="3.8" height="3.8"/>
<rect x="190.4" y="175" shape-rendering="optimizeSpeed" width="3.8" height="3.8"/>
<rect x="99.7" y="178.7" shape-rendering="optimizeSpeed" width="3.8" height="3.8"/>
<rect x="107.3" y="178.7" shape-rendering="optimizeSpeed" width="3.8" height="3.8"/>
<rect x="111" y="178.7" shape-rendering="optimizeSpeed" width="3.8" height="3.8"/>
<rect x="114.8" y="178.7" shape-rendering="optimizeSpeed" width="3.8" height="3.8"/>
<rect x="122.4" y="178.7" shape-rendering="optimizeSpeed" width="3.8" height="3.8"/>
<rect x="133.7" y="178.7" shape-rendering="optimizeSpeed" width="3.8" height="3.8"/>
<rect x="145" y="178.7" shape-rendering="optimizeSpeed" width="3.8" height="3.8"/>
<rect x="156.4" y="178.7" shape-rendering="optimizeSpeed" width="3.8" height="3.8"/>
<rect x="164" y="178.7" shape-rendering="optimizeSpeed" width="3.8" height="3.8"/>
<rect x="175.3" y="178.7" shape-rendering="optimizeSpeed" width="3.8" height="3.8"/>
<rect x="182.8" y="178.7" shape-rendering="optimizeSpeed" width="3.8" height="3.8"/>
<rect x="186.6" y="178.7" shape-rendering="optimizeSpeed" width="3.8" height="3.8"/>
<rect x="99.7" y="182.5" shape-rendering="optimizeSpeed" width="3.8" height="3.8"/>
<rect x="107.3" y="182.5" shape-rendering="optimizeSpeed" width="3.8" height="3.8"/>
<rect x="111" y="182.5" shape-rendering="optimizeSpeed" width="3.8" height="3.8"/>
<rect x="114.8" y="182.5" shape-rendering="optimizeSpeed" width="3.8" height="3.8"/>
<rect x="122.4" y="182.5" shape-rendering="optimizeSpeed" width="3.8" height="3.8"/>
<rect x="129.9" y="182.5" shape-rendering="optimizeSpeed" width="3.8" height="3.8"/>
<rect x="133.7" y="182.5" shape-rendering="optimizeSpeed" width="3.8" height="3.8"/>
<rect x="145" y="182.5" shape-rendering="optimizeSpeed" width="3.8" height="3.8"/>
<rect x="148.9" y="182.5" shape-rendering="optimizeSpeed" width="3.8" height="3.8"/>
<rect x="152.6" y="182.5" shape-rendering="optimizeSpeed" width="3.8" height="3.8"/>
<rect x="160.2" y="182.5" shape-rendering="optimizeSpeed" width="3.8" height="3.8"/>
<rect x="164" y="182.5" shape-rendering="optimizeSpeed" width="3.8" height="3.8"/>
<rect x="171.5" y="182.5" shape-rendering="optimizeSpeed" width="3.8" height="3.8"/>
<rect x="175.3" y="182.5" shape-rendering="optimizeSpeed" width="3.8" height="3.8"/>
<rect x="179.1" y="182.5" shape-rendering="optimizeSpeed" width="3.8" height="3.8"/>
<rect x="186.6" y="182.5" shape-rendering="optimizeSpeed" width="3.8" height="3.8"/>
<rect x="190.4" y="182.5" shape-rendering="optimizeSpeed" width="3.8" height="3.8"/>
<rect x="99.7" y="186.3" shape-rendering="optimizeSpeed" width="3.8" height="3.8"/>
<rect x="122.4" y="186.3" shape-rendering="optimizeSpeed" width="3.8" height="3.8"/>
<rect x="129.9" y="186.3" shape-rendering="optimizeSpeed" width="3.8" height="3.8"/>
<rect x="141.2" y="186.3" shape-rendering="optimizeSpeed" width="3.8" height="3.8"/>
<rect x="145" y="186.3" shape-rendering="optimizeSpeed" width="3.8" height="3.8"/>
<rect x="152.6" y="186.3" shape-rendering="optimizeSpeed" width="3.8" height="3.8"/>
<rect x="160.2" y="186.3" shape-rendering="optimizeSpeed" width="3.8" height="3.8"/>
<rect x="164" y="186.3" shape-rendering="optimizeSpeed" width="3.8" height="3.8"/>
<rect x="167.7" y="186.3" shape-rendering="optimizeSpeed" width="3.8" height="3.8"/>
<rect x="171.5" y="186.3" shape-rendering="optimizeSpeed" width="3.8" height="3.8"/>
<rect x="175.3" y="186.3" shape-rendering="optimizeSpeed" width="3.8" height="3.8"/>
<rect x="99.7" y="190.1" shape-rendering="optimizeSpeed" width="3.8" height="3.8"/>
<rect x="103.4" y="190.1" shape-rendering="optimizeSpeed" width="3.8" height="3.8"/>
<rect x="107.3" y="190.1" shape-rendering="optimizeSpeed" width="3.8" height="3.8"/>
<rect x="111" y="190.1" shape-rendering="optimizeSpeed" width="3.8" height="3.8"/>
<rect x="114.8" y="190.1" shape-rendering="optimizeSpeed" width="3.8" height="3.8"/>
<rect x="118.6" y="190.1" shape-rendering="optimizeSpeed" width="3.8" height="3.8"/>
<rect x="122.4" y="190.1" shape-rendering="optimizeSpeed" width="3.8" height="3.8"/>
<rect x="129.9" y="190.1" shape-rendering="optimizeSpeed" width="3.8" height="3.8"/>
<rect x="133.7" y="190.1" shape-rendering="optimizeSpeed" width="3.8" height="3.8"/>
<rect x="137.5" y="190.1" shape-rendering="optimizeSpeed" width="3.8" height="3.8"/>
<rect x="148.9" y="190.1" shape-rendering="optimizeSpeed" width="3.8" height="3.8"/>
<rect x="152.6" y="190.1" shape-rendering="optimizeSpeed" width="3.8" height="3.8"/>
<rect x="160.2" y="190.1" shape-rendering="optimizeSpeed" width="3.8" height="3.8"/>
<rect x="164" y="190.1" shape-rendering="optimizeSpeed" width="3.8" height="3.8"/>
<rect x="167.7" y="190.1" shape-rendering="optimizeSpeed" width="3.8" height="3.8"/>
<rect x="179.1" y="190.1" shape-rendering="optimizeSpeed" width="3.8" height="3.8"/>
<rect x="190.4" y="190.1" shape-rendering="optimizeSpeed" width="3.8" height="3.8"/>
<g>
	<path d="M57.8,41.8v5.4H40.2L26.8,74h-6.2l13.3-26.7H9.3v-5.4h26.3v-9.5l-22,1.4v-5.5l37.8-2.4v5.5L41.2,32v9.8H57.8z"/>
	<path d="M122.8,50.8H76.7v-5.6h46.1V50.8z"/>
	<path d="M169.4,48.5l19.2,25.7h-7l-15.7-21l-15.6,21h-6.8l31.3-42.4h-29.2v-5.5h36.3l0.7,4.2L169.4,48.5z M188.3,28.4h-4.2
		l-1.3-7.8h4.2L188.3,28.4z M194.2,28.4H190l-1.3-7.8h4.2L194.2,28.4z"/>
</g>
</svg>
